<?xml version="1.0" encoding="iso-8859-1"?>
<!-- Generator: Adobe Illustrator 19.0.0, SVG Export Plug-In . SVG Version: 6.00 Build 0)  -->
<svg version="1.1" id="Capa_1" xmlns="http://www.w3.org/2000/svg" xmlns:xlink="http://www.w3.org/1999/xlink" x="0px" y="0px"
	 viewBox="0 0 504.463 504.463" style="enable-background:new 0 0 504.463 504.463;" xml:space="preserve">
<g transform="matrix(1.25 0 0 -1.25 0 45)">
	<g>
		<g>
			<g>
				<path style="fill:#662113;" d="M141.982-225.223c0,0-12.55-15.667-8.385-37.183c2.56-13.255,14.95-26.931,31.573-29.491
					c5.552-0.865,8.26-11.696,6.724-19.661c-1.741-9.011-7.953-21.641-11.366-28.046c-3.425-6.417-10.126-6.394-18.375-13.801
					c-5.746-5.165-7.703-14.165,2.128-14.165h43.474c8.715,0,14.279,5.336,16.134,14.12c2.571,12.186,12.447,58.573,9.626,67.538
					c-2.014,6.417-8.841,11.537-13.244,23.927c-3.265,9.193,4.289,33.769,4.289,33.769L141.982-225.223z"/>
				<path style="fill:#662113;" d="M17.281-218.294c0,0,9.068,8.238,15.292,10.661c6.224,2.435,29.059,0.66,34.873,1.877
					c5.814,1.206,15.508,11.036,15.508,11.036s24.394-9.5,24.644-11.833c0.262-2.344-16.373-18.409-20.025-22.608
					c-3.652-4.187-26.351,6.11-33.109,6.11s-20.958-6.076-25.964-8.909c-4.995-2.833-5.803,1.49-2.97,4.597
					c0,0-4.562-5.575-6.133-3.527s2.628,6.508,2.628,6.508s-3.925-4.995-6.087-3.379C13.777-226.133,13.731-222.572,17.281-218.294"
					/>
				<path style="fill:#662113;" d="M152.392-34.201c-2.651-7.054-9.455-18.625,4.039-19.57c13.483-0.944,0.239-14.199-11.73-15.053
					c-11.969-0.853-50.87,15.815-46.592,25.646c4.278,9.83,21.39,20.514,34.634,17.954
					C145.987-27.796,152.392-34.201,152.392-34.201"/>
			</g>
			<g>
				<path style="fill:#F4900C;" d="M225.187-20.013c-0.887-6.576-2.662-11.378-3.914-11.196c-1.24,0.171-4.267,12.083-4.267,12.083
					s-2.31-13.153-3.903-12.971c-1.604,0.171-3.209,12.083-3.209,12.083s-2.662-12.095-4.437-12.095
					c-1.786,0.011-4.096,12.095-4.096,12.095s-1.934-11.969-3.356-12.14c-1.422-0.182-5.712,10.911-5.712,10.911
					s-2.48-11.218-3.732-11.218c-1.24,0-4.801,11.218-4.801,11.218s-2.128-11.036-3.197-11.036s-4.972,11.036-4.972,11.036
					s-1.582-11.833-2.674-12.106c-2.913-0.705-8.192,10.138-8.192,10.138s2.48-12.072,0.91-12.277
					c-2.674-0.364-11.207,8.363-11.207,8.363s10.843,10.843,19.558,12.618c8.715,1.786,45.693,8.897,49.96,7.293
					C228.214-8.817,225.187-20.013,225.187-20.013"/>
				<path style="fill:#F4900C;" d="M217.985-51.211c-1.559,6.451-3.823,11.036-5.052,10.741c-1.217-0.307-1.49-11.423-1.49-11.423
					s-5.154,11.799-6.736,11.457c-1.57-0.341-0.694-12.22-0.694-12.22s-5.143,11.617-6.906,11.435
					c-1.764-0.182-1.047-12.265-1.047-12.265s-5.939,12.436-7.373,12.459c-1.434,0.034-1.604-12.14-1.604-12.14
					s-4.403,11.526-5.643,11.389c-1.24-0.125-2.628-12.607-2.628-12.607s-3.288,11.105-4.358,10.991
					c-1.058-0.114-2.913-11.56-2.913-11.56s-3.345,9.842-4.437,10.081c-1.104,0.239-2.514-10.274-2.514-10.274
					s-3.288,7.771-4.779,8.329c-1.49,0.558-2.458-10.001-2.458-10.001s1.422-4.289,10.274-5.154
					c8.852-0.876,46.364-4.13,50.438-2.094C222.15-62.043,217.985-51.211,217.985-51.211"/>
			</g>
			<path style="fill:#AB7E59;" d="M113.879-43.144c1.297,7.771,24.36-3.846,29.059-2.56c4.71,1.274,23.506,20.082,28.638,20.514
				c5.131,0.421,50.87,1.274,55.99,3.846c5.131,2.56,2.139,22.653-2.56,28.206c-4.699,5.564-21.367,17.954-41.028,20.093
				c-19.661,2.139-33.337,2.56-39.754,5.985c-6.406,3.413-20.514,4.699-30.345,0c-9.83-4.71-44.874-10.263-59.415-24.792
				C39.934-6.383,23.266-25.622,19.42-56.82c-3.846-31.198,5.871-52.031,11.969-63.511c4.471-8.442,17.089-39.925,20.082-52.315
				c2.992-12.402,21.003-56.639,56.138-66.901c35.146-10.251,60.974-30.128,93.036-35.26c36.5-5.837,103.435,2.139,137.626,23.518
				c34.19,21.367,50.859,43.167,50.859,71.794c0,28.638-18.375,59.847-44.021,60.7c-25.646,0.853-8.977-7.691-1.286-9.409
				c7.691-1.707,22.653-20.082,19.24-36.329c-3.425-16.236-10.263-28.638-28.638-29.059c-18.375-0.432-37.615,20.082-47.878,33.769
				c-10.251,13.676-56.411,37.99-78.211,39.299c-21.8,1.297-67.106,1.297-72.658,14.973c-5.564,13.676-4.278,20.526-0.432,22.232
				c3.846,1.707,25.225,6.406,40.175,6.838c14.962,0.421,41.461,4.267,44.885,9.398c3.413,5.131,2.56,15.815-1.286,16.247
				c-3.846,0.421-27.785-2.139-34.623-2.139c-6.838,0-10.684,5.552-17.954,3.425c-7.259-2.139-20.514-10.263-26.066-9.409
				S113.446-45.704,113.879-43.144"/>
			<g>
				<path style="fill:#8B5E3C;" d="M295.036-256.66c-30.64-4.415-89.27,5.302-106.473,11.173
					c-17.203,5.871-52.508,14.996-77.38,20.264c-24.872,5.279-44.191,26.158-57.845,46.638
					c5.905-16.885,23.541-51.962,54.329-60.951c35.146-10.263,60.974-30.128,93.036-35.26c36.5-5.837,103.435,2.139,137.626,23.506
					c12.413,7.76,22.437,15.576,30.265,23.745C357.818-235.599,325.528-252.268,295.036-256.66"/>
				<path style="fill:#8B5E3C;" d="M134.199,24.189c15.201-2.367,2.31-10.342,30.527-10.286c0,0-21.311-11.378-29.855-11.378
					c-14.757,0-17.84,7.327-17.829,13.449C117.042,21.482,126.235,25.43,134.199,24.189"/>
			</g>
			<path style="fill:#292F33;" d="M136.293,13.585c0-3.14-2.549-5.689-5.689-5.689c-3.14,0-5.689,2.549-5.689,5.689
				s2.549,5.689,5.689,5.689C133.744,19.274,136.293,16.726,136.293,13.585"/>
			<g>
				<path style="fill:#AB7E59;" d="M183.283-239.752c0,0,4.824-17.101,20.434-32.484c15.61-15.383,46.888-18.807,52.452-19.661
					c5.552-0.853,11.571-2.992,14.131-10.684c2.571-7.691,7.407-30.618,3.982-37.023c-3.425-6.417-17.613-9.99-21.47-17.26
					c-2.162-4.062-7.771-10.706,2.059-10.706h52.065c8.715,0,10.854,6.861,10.854,15.838c0,8.977,2.992,23.507-2.571,39.322
					c-5.552,15.815-7.691,39.743-17.089,42.314c-9.409,2.56-24.371,28.206-24.371,28.206L183.283-239.752z"/>
				<path style="fill:#AB7E59;" d="M37.932-262.303c0,0,6.36,11.332,11.799,15.872c5.439,4.528,29.013,10.422,34.452,13.596
					c5.439,3.174,11.901,16.316,11.901,16.316s27.728-1.354,28.763-3.63c1.047-2.264-10.286-24.018-12.55-29.457
					c-2.276-5.45-28.57-2.731-35.362-4.995c-6.804-2.264-19.046-13.141-23.12-17.681c-4.085-4.528-6.349-0.444-4.54,3.63
					c0,0-2.719-7.145-4.983-5.609c-2.264,1.536,0.455,7.43,0.455,7.43s-2.264-6.349-4.983-5.45
					C37.045-271.371,35.793-267.798,37.932-262.303"/>
			</g>
			<g>
				<path style="fill:#8B5E3C;" d="M167.127-136.18c0-3.618-2.935-6.554-6.554-6.554s-6.554,2.935-6.554,6.554
					s2.935,6.554,6.554,6.554S167.127-132.562,167.127-136.18"/>
				<path style="fill:#8B5E3C;" d="M201.954-150.596c0-5.154-4.176-9.33-9.33-9.33c-5.143,0-9.318,4.176-9.318,9.33
					c0,5.154,4.176,9.33,9.318,9.33C197.778-141.266,201.954-145.442,201.954-150.596"/>
				<path style="fill:#8B5E3C;" d="M183.283-131.538c0-2.742-2.219-4.961-4.961-4.961s-4.961,2.219-4.961,4.961
					c0,2.742,2.219,4.961,4.961,4.961S183.283-128.796,183.283-131.538"/>
				<path style="fill:#8B5E3C;" d="M216.961-134.269c0-2.594-2.105-4.688-4.688-4.688c-2.594,0-4.699,2.094-4.699,4.688
					c0,2.594,2.105,4.688,4.699,4.688C214.856-129.581,216.961-131.675,216.961-134.269"/>
				<path style="fill:#8B5E3C;" d="M246.657-147.626c0-4.79-3.88-8.67-8.67-8.67s-8.681,3.88-8.681,8.67
					c0,4.79,3.891,8.67,8.681,8.67S246.657-142.836,246.657-147.626"/>
				<path style="fill:#8B5E3C;" d="M279.596-189.189c0-3.072-2.48-5.552-5.552-5.552c-3.061,0-5.552,2.48-5.552,5.552
					c0,3.072,2.492,5.552,5.552,5.552C277.116-183.637,279.596-186.117,279.596-189.189"/>
			</g>
			<path id="SVGCleanerId_0" style="fill:#8B5E3C;" d="M227.998-165.433c0-3.072-2.48-5.552-5.552-5.552
				c-3.061,0-5.552,2.48-5.552,5.552c0,3.061,2.492,5.552,5.552,5.552C225.517-159.88,227.998-162.372,227.998-165.433"/>
			<g transform="translate(4.416)">
				<path id="SVGCleanerId_0_1_" style="fill:#8B5E3C;" d="M278.242-165.433c0-3.072-2.48-5.552-5.552-5.552
					c-3.061,0-5.552,2.48-5.552,5.552c0,3.061,2.492,5.552,5.552,5.552C275.762-159.88,278.242-162.372,278.242-165.433"/>
			</g>
			<path style="fill:#8B5E3C;" d="M261.278-162.543c0-4.54-3.675-8.215-8.215-8.215s-8.215,3.675-8.215,8.215
				s3.675,8.215,8.215,8.215S261.278-158.003,261.278-162.543"/>
		</g>
	</g>
</g>
<g>
</g>
<g>
</g>
<g>
</g>
<g>
</g>
<g>
</g>
<g>
</g>
<g>
</g>
<g>
</g>
<g>
</g>
<g>
</g>
<g>
</g>
<g>
</g>
<g>
</g>
<g>
</g>
<g>
</g>
</svg>
